<svg xmlns="http://www.w3.org/2000/svg" width="430" height="430" style="width:100%;height:100%;transform:translate3d(0,0,0);content-visibility:visible" viewBox="0 0 430 430"><defs><clipPath id="a"><path d="M0 0h430v430H0z"/></clipPath><clipPath id="c"><path d="M0 0h430v430H0z"/></clipPath><clipPath id="b"><path d="M0 0h430v430H0z"/></clipPath></defs><g clip-path="url(#a)"><g clip-path="url(#b)" style="display:block"><g fill="#B26836" style="display:block"><path d="M199.531 335.175c-82.277 29.99-153.21-80.323-73.424-145.614 25.45-21.591-23.97-84.323-58.554-36.089l.005-.026c-.005-12.163 7.167-61.409 63.728-61.409 35.221 0 63.336 30.547 63.336 65.757 0 33.977-54.503 110.931-8.595 149.903" class="secondary"/><path fill-opacity=".5" d="M65.989 119.038c-82.277 29.99-153.21-80.323-73.424-145.614 25.45-21.591-23.97-84.323-58.554-36.089l.005-.026c-.005-12.163 7.167-61.409 63.728-61.409 35.221 0 63.336 30.547 63.336 65.757 0 33.977-54.503 110.931-8.595 149.903" class="secondary" style="mix-blend-mode:multiply" transform="translate(133.542 216.137)"/></g><path fill="none" stroke="#121331" stroke-linecap="round" stroke-linejoin="round" stroke-width="7" d="M65.989 119.038c-82.277 29.99-153.21-80.323-73.424-145.614 25.45-21.591-23.97-84.323-58.554-36.089l.005-.026c-.005-12.163 7.167-61.409 63.728-61.409 35.221 0 63.336 30.547 63.336 65.757 0 33.977-54.503 110.931-8.595 149.903" class="primary" style="display:block" transform="translate(134.542 216.137)"/><g style="display:block"><path fill="#B26836" d="M270.799 260.859c30.492 0 26.159 39.884 26.159 51.96h21.227c7.905 0 15.061 3.205 20.247 8.379a28.53 28.53 0 0 1 8.377 20.235H232.055c-99.392 0-108.035-156.435-18.726-156.435 53.009 0 48.21-37.452 48.21-37.452V87.911l26.378 32.773c51.119 0 44.206 17.643 63.508 38.386 0 19.141-20.675 32.75-43.773 32.75 0 0-.012 0-.012.011-9.83 5.014-16.836 20.767-23.912 35.955" class="secondary"/><path fill="none" stroke="#121331" stroke-linecap="round" stroke-linejoin="round" stroke-width="14" d="M311.402 149.119q0 0 0 0" class="primary"/></g><path fill="#B26836" d="m283.731 227.786 56.973-13.414a14.6 14.6 0 0 1 3.354-.391c6.638 0 12.63 4.539 14.22 11.269 1.844 7.86-3.019 15.719-10.878 17.574l-76.599 18.035v.001s-42.999 11.116-61.666-20.812" class="secondary" style="display:block"/><g opacity=".5" style="mix-blend-mode:multiply;display:block"><path fill="#B26836" d="M294.874 281.606c-3.364-2.93-8.669-6.655-15.768-7.98-7.05-1.315-11.424.566-17.37 1.576-12.061 2.049-29.384.303-40.38-9.27-2.784-2.423-10.488-9.986-12.472-25.866 18.66 31.92 61.66 20.81 61.66 20.81 14.93 0 21.51 9.55 24.33 20.73" class="secondary" opacity="1"/></g><path fill="none" stroke="#121331" stroke-linecap="round" stroke-linejoin="round" stroke-width="7" d="M19.308 46.187q0 0 0 0c30.492 0 26.159 39.884 26.159 51.96h21.227c7.905 0 15.061 3.205 20.247 8.379a28.53 28.53 0 0 1 8.377 20.235H-19.436c-99.392 0-108.035-156.435-18.726-156.435 53.009 0 48.21-37.452 48.21-37.452v-59.635l26.378 32.773c51.119 0 44.206 17.643 63.508 38.386 0 19.141-20.675 32.75-43.773 32.75 0 0-.012 0-.012.011-9.83 5.014-16.836 20.767-23.912 35.955" class="primary" style="display:block" transform="translate(252.491 214.672)"/><path fill="none" stroke="#121331" stroke-linecap="round" stroke-linejoin="round" stroke-width="7" d="m-.171-10.571 56.973-13.414a14.6 14.6 0 0 1 3.354-.391c6.638 0 12.63 4.539 14.22 11.269 1.844 7.86-3.019 15.719-10.878 17.574l-76.599 18.035q0 0 0 0v.001S-56.1 33.619-74.767 1.691" class="primary" style="display:block" transform="translate(284.902 238.357)"/></g><g clip-path="url(#c)" style="display:none"><path class="secondary" style="display:none"/><g style="display:none"><path class="secondary"/><path class="secondary" style="mix-blend-mode:multiply"/></g><path fill="none" class="primary" style="display:none"/><path class="secondary" style="display:none"/><g style="display:none"><path class="secondary"/><path fill="none" class="primary"/></g><path fill="none" class="primary" style="display:none"/><g style="mix-blend-mode:multiply;display:none"><path class="secondary"/><path class="secondary"/></g><path class="secondary" style="display:none"/><g fill="none" style="display:none"><path class="primary"/><path class="primary"/></g><path fill="none" class="primary" style="display:none"/></g></g></svg>